<mxfile host="app.diagrams.net" modified="2022-08-31T01:35:57.304Z" agent="5.0 (Windows NT 10.0; Win64; x64) AppleWebKit/537.36 (KHTML, like Gecko) Chrome/104.0.0.0 Safari/537.36" etag="pBP1dCqPtmihu3jzW2BP" version="20.2.7" type="github">
  <diagram id="X7v_FT4uCcq_Nn4EWgaO" name="Page-1">
    <mxGraphModel dx="1422" dy="754" grid="1" gridSize="10" guides="1" tooltips="1" connect="1" arrows="1" fold="1" page="1" pageScale="1" pageWidth="850" pageHeight="1100" math="0" shadow="0">
      <root>
        <mxCell id="0" />
        <mxCell id="1" parent="0" />
        <mxCell id="0fAYchpyf54ZYwMvFwt7-5" style="edgeStyle=orthogonalEdgeStyle;rounded=0;orthogonalLoop=1;jettySize=auto;html=1;exitX=1;exitY=0.5;exitDx=0;exitDy=0;exitPerimeter=0;entryX=1;entryY=0.5;entryDx=0;entryDy=0;entryPerimeter=0;" edge="1" parent="1" source="0fAYchpyf54ZYwMvFwt7-1" target="0fAYchpyf54ZYwMvFwt7-4">
          <mxGeometry relative="1" as="geometry" />
        </mxCell>
        <mxCell id="0fAYchpyf54ZYwMvFwt7-1" value="" style="pointerEvents=1;fillColor=strokeColor;verticalLabelPosition=bottom;shadow=0;dashed=0;align=center;html=1;verticalAlign=top;shape=mxgraph.electrical.diodes.diode;" vertex="1" parent="1">
          <mxGeometry x="120" y="130" width="100" height="60" as="geometry" />
        </mxCell>
        <mxCell id="0fAYchpyf54ZYwMvFwt7-2" value="" style="shape=mxgraph.uml25.inputPin;html=1;points=[[0,0.5],[1,0.5]];flipH=1;" vertex="1" parent="1">
          <mxGeometry x="90" y="145" width="30" height="30" as="geometry" />
        </mxCell>
        <mxCell id="0fAYchpyf54ZYwMvFwt7-7" style="edgeStyle=orthogonalEdgeStyle;rounded=0;orthogonalLoop=1;jettySize=auto;html=1;exitX=0;exitY=0.5;exitDx=0;exitDy=0;exitPerimeter=0;entryX=0.5;entryY=0;entryDx=0;entryDy=0;entryPerimeter=0;" edge="1" parent="1" source="0fAYchpyf54ZYwMvFwt7-4" target="0fAYchpyf54ZYwMvFwt7-23">
          <mxGeometry relative="1" as="geometry">
            <mxPoint x="370" y="160" as="targetPoint" />
          </mxGeometry>
        </mxCell>
        <mxCell id="0fAYchpyf54ZYwMvFwt7-4" value="" style="pointerEvents=1;verticalLabelPosition=bottom;shadow=0;dashed=0;align=center;html=1;verticalAlign=top;shape=mxgraph.electrical.resistors.resistor_2;direction=west;" vertex="1" parent="1">
          <mxGeometry x="240" y="150" width="100" height="20" as="geometry" />
        </mxCell>
        <mxCell id="0fAYchpyf54ZYwMvFwt7-8" style="edgeStyle=orthogonalEdgeStyle;rounded=0;orthogonalLoop=1;jettySize=auto;html=1;exitX=1;exitY=0.5;exitDx=0;exitDy=0;exitPerimeter=0;entryX=1;entryY=0.5;entryDx=0;entryDy=0;entryPerimeter=0;" edge="1" parent="1" source="0fAYchpyf54ZYwMvFwt7-9" target="0fAYchpyf54ZYwMvFwt7-12">
          <mxGeometry relative="1" as="geometry" />
        </mxCell>
        <mxCell id="0fAYchpyf54ZYwMvFwt7-9" value="" style="pointerEvents=1;fillColor=strokeColor;verticalLabelPosition=bottom;shadow=0;dashed=0;align=center;html=1;verticalAlign=top;shape=mxgraph.electrical.diodes.diode;" vertex="1" parent="1">
          <mxGeometry x="120" y="210" width="100" height="60" as="geometry" />
        </mxCell>
        <mxCell id="0fAYchpyf54ZYwMvFwt7-10" value="" style="shape=mxgraph.uml25.inputPin;html=1;points=[[0,0.5],[1,0.5]];flipH=1;" vertex="1" parent="1">
          <mxGeometry x="90" y="225" width="30" height="30" as="geometry" />
        </mxCell>
        <mxCell id="0fAYchpyf54ZYwMvFwt7-11" style="edgeStyle=orthogonalEdgeStyle;rounded=0;orthogonalLoop=1;jettySize=auto;html=1;exitX=0;exitY=0.5;exitDx=0;exitDy=0;exitPerimeter=0;entryX=0.5;entryY=0;entryDx=0;entryDy=0;entryPerimeter=0;" edge="1" parent="1" source="0fAYchpyf54ZYwMvFwt7-12" target="0fAYchpyf54ZYwMvFwt7-23">
          <mxGeometry relative="1" as="geometry">
            <mxPoint x="370" y="240" as="targetPoint" />
          </mxGeometry>
        </mxCell>
        <mxCell id="0fAYchpyf54ZYwMvFwt7-12" value="" style="pointerEvents=1;verticalLabelPosition=bottom;shadow=0;dashed=0;align=center;html=1;verticalAlign=top;shape=mxgraph.electrical.resistors.resistor_2;direction=west;" vertex="1" parent="1">
          <mxGeometry x="240" y="230" width="100" height="20" as="geometry" />
        </mxCell>
        <mxCell id="0fAYchpyf54ZYwMvFwt7-13" style="edgeStyle=orthogonalEdgeStyle;rounded=0;orthogonalLoop=1;jettySize=auto;html=1;exitX=1;exitY=0.5;exitDx=0;exitDy=0;exitPerimeter=0;entryX=1;entryY=0.5;entryDx=0;entryDy=0;entryPerimeter=0;" edge="1" parent="1" source="0fAYchpyf54ZYwMvFwt7-14" target="0fAYchpyf54ZYwMvFwt7-17">
          <mxGeometry relative="1" as="geometry" />
        </mxCell>
        <mxCell id="0fAYchpyf54ZYwMvFwt7-14" value="" style="pointerEvents=1;fillColor=strokeColor;verticalLabelPosition=bottom;shadow=0;dashed=0;align=center;html=1;verticalAlign=top;shape=mxgraph.electrical.diodes.diode;" vertex="1" parent="1">
          <mxGeometry x="120" y="290" width="100" height="60" as="geometry" />
        </mxCell>
        <mxCell id="0fAYchpyf54ZYwMvFwt7-15" value="" style="shape=mxgraph.uml25.inputPin;html=1;points=[[0,0.5],[1,0.5]];flipH=1;" vertex="1" parent="1">
          <mxGeometry x="90" y="305" width="30" height="30" as="geometry" />
        </mxCell>
        <mxCell id="0fAYchpyf54ZYwMvFwt7-16" style="edgeStyle=orthogonalEdgeStyle;rounded=0;orthogonalLoop=1;jettySize=auto;html=1;exitX=0;exitY=0.5;exitDx=0;exitDy=0;exitPerimeter=0;entryX=0.5;entryY=0;entryDx=0;entryDy=0;entryPerimeter=0;" edge="1" parent="1" source="0fAYchpyf54ZYwMvFwt7-17" target="0fAYchpyf54ZYwMvFwt7-23">
          <mxGeometry relative="1" as="geometry">
            <mxPoint x="370" y="320" as="targetPoint" />
          </mxGeometry>
        </mxCell>
        <mxCell id="0fAYchpyf54ZYwMvFwt7-17" value="" style="pointerEvents=1;verticalLabelPosition=bottom;shadow=0;dashed=0;align=center;html=1;verticalAlign=top;shape=mxgraph.electrical.resistors.resistor_2;direction=west;" vertex="1" parent="1">
          <mxGeometry x="240" y="310" width="100" height="20" as="geometry" />
        </mxCell>
        <mxCell id="0fAYchpyf54ZYwMvFwt7-22" style="edgeStyle=orthogonalEdgeStyle;rounded=0;orthogonalLoop=1;jettySize=auto;html=1;exitX=1;exitY=0.8;exitDx=0;exitDy=0;entryX=0;entryY=0.5;entryDx=0;entryDy=0;entryPerimeter=0;" edge="1" parent="1" source="0fAYchpyf54ZYwMvFwt7-18" target="0fAYchpyf54ZYwMvFwt7-21">
          <mxGeometry relative="1" as="geometry" />
        </mxCell>
        <mxCell id="0fAYchpyf54ZYwMvFwt7-18" value="" style="shape=mxgraph.electrical.electro-mechanical.pushbutton;aspect=fixed;elSwitchState=off;" vertex="1" parent="1">
          <mxGeometry x="165" y="395" width="75" height="20" as="geometry" />
        </mxCell>
        <mxCell id="0fAYchpyf54ZYwMvFwt7-20" style="edgeStyle=orthogonalEdgeStyle;rounded=0;orthogonalLoop=1;jettySize=auto;html=1;exitX=1;exitY=0.5;exitDx=0;exitDy=0;entryX=0;entryY=0.8;entryDx=0;entryDy=0;" edge="1" parent="1" source="0fAYchpyf54ZYwMvFwt7-19" target="0fAYchpyf54ZYwMvFwt7-18">
          <mxGeometry relative="1" as="geometry" />
        </mxCell>
        <mxCell id="0fAYchpyf54ZYwMvFwt7-19" value="" style="shape=mxgraph.uml25.inputPin;html=1;points=[[0,0.5],[1,0.5]];strokeColor=#ffffff;fillColor=#000000;" vertex="1" parent="1">
          <mxGeometry x="90" y="395" width="30" height="30" as="geometry" />
        </mxCell>
        <mxCell id="0fAYchpyf54ZYwMvFwt7-24" style="edgeStyle=orthogonalEdgeStyle;rounded=0;orthogonalLoop=1;jettySize=auto;html=1;exitX=1;exitY=0.5;exitDx=0;exitDy=0;exitPerimeter=0;" edge="1" parent="1" source="0fAYchpyf54ZYwMvFwt7-21" target="0fAYchpyf54ZYwMvFwt7-23">
          <mxGeometry relative="1" as="geometry" />
        </mxCell>
        <mxCell id="0fAYchpyf54ZYwMvFwt7-21" value="" style="pointerEvents=1;verticalLabelPosition=bottom;shadow=0;dashed=0;align=center;html=1;verticalAlign=top;shape=mxgraph.electrical.resistors.resistor_2;" vertex="1" parent="1">
          <mxGeometry x="290" y="400" width="100" height="20" as="geometry" />
        </mxCell>
        <mxCell id="0fAYchpyf54ZYwMvFwt7-23" value="" style="pointerEvents=1;verticalLabelPosition=bottom;shadow=0;dashed=0;align=center;html=1;verticalAlign=top;shape=mxgraph.electrical.signal_sources.signal_ground;" vertex="1" parent="1">
          <mxGeometry x="460" y="440" width="45" height="30" as="geometry" />
        </mxCell>
      </root>
    </mxGraphModel>
  </diagram>
</mxfile>
